PathFileType	4	(X/Y/Z)
DataRate	CameraRate	NumFrames	NumMarkers	Units	OrigDataRate	OrigDataStartFrame	OrigNumFrames	
	120.0	120.0	4	39	mm	120.0	203	231
Frame#	Time	midhip	hip_r	hip_l	knee_r	knee_l	ankle_r	ankle_l	midasis	asis_r	asis_l	psis_r	psis_l	epicondLat_r	epicondLat_l	epicondMed_r	epicondMed_l	malleolusLat_r	malleolusLat_l	malleolusMedv_r	malleolusMedv_l	heel_r	heel_l	sternalnotch	xyphoidprocess	neck	subclavicle_r	subclavicle_l	toe_r	toe_l	thighwand_r	thighwand_l	upperleg1_r	upperleg1_l	upperleg2_r	upperleg2_l	shankwand_r	shankwand_l	lowerleg1_r	lowerleg1_l
	X1	Y1	Z1	X2	Y2	Z2	X3	Y3	Z3	X4	Y4	Z4	X5	Y5	Z5	X6	Y6	Z6	X7	Y7	Z7	X8	Y8	Z8	X9	Y9	Z9	X10	Y10	Z10	X11	Y11	Z11	X12	Y12	Z12	X13	Y13	Z13	X14	Y14	Z14	X15	Y15	Z15	X16	Y16	Z16	X17	Y17	Z17	X18	Y18	Z18	X19	Y19	Z19	X20	Y20	Z20	X21	Y21	Z21	X22	Y22	Z22	X23	Y23	Z23	X24	Y24	Z24	X25	Y25	Z25	X26	Y26	Z26	X27	Y27	Z27	X28	Y28	Z28	X29	Y29	Z29	X30	Y30	Z30	X31	Y31	Z31	X32	Y32	Z32	X33	Y33	Z33	X34	Y34	Z34	X35	Y35	Z35	X36	Y36	Z36	X37	Y37	Z37	X38	Y38	Z38	X39	Y39	Z39

	203	1.69167	1361.252	701.536	-226.438	1358.990	703.944	-163.610	1363.514	699.128	-289.266	1340.181	374.274	-139.003	1341.700	377.878	-307.772	1355.595	57.495	-109.570	1336.401	59.213	-343.613	1436.570	753.268	-225.709	1433.215	756.840	-132.516	1439.925	749.696	-318.903	1298.130	816.527	-214.112	1299.424	809.395	-268.488	1338.188	378.143	-88.691	1341.583	380.761	-357.689	1337.306	375.844	-189.273	1342.930	366.064	-254.892	1345.587	59.970	-77.696	1330.422	63.109	-377.367	1351.892	65.130	-137.212	1332.741	60.163	-313.796	1299.868	38.918	-112.446	1283.321	40.857	-338.521	1400.803	1114.749	-245.004	1453.095	980.326	-240.230	1325.392	1149.781	-245.459	1400.207	1127.792	-184.804	1405.577	1126.353	-300.161	1451.433	39.917	-99.186	1432.150	38.543	-357.461	1341.803	484.998	-20.503	1477.934	475.532	-333.919	1381.768	538.092	-91.045	1413.569	529.717	-273.323	1386.321	453.497	-98.541	1396.926	443.610	-274.494	1317.104	168.006	-14.983	1420.894	163.107	-371.676	1329.679	219.200	-78.744	1360.621	216.247	-343.801
	204	1.70000	1361.256	701.550	-226.447	1358.979	703.959	-163.619	1363.532	699.141	-289.274	1340.173	374.272	-139.022	1341.704	377.883	-307.771	1355.551	57.441	-109.567	1336.393	59.202	-343.582	1436.578	753.274	-225.701	1433.202	756.847	-132.514	1439.954	749.701	-318.888	1298.133	816.557	-214.142	1299.435	809.413	-268.511	1338.176	378.140	-88.710	1341.597	380.764	-357.688	1337.345	375.884	-189.272	1342.947	366.077	-254.858	1345.541	59.919	-77.693	1330.421	63.095	-377.337	1351.902	65.184	-137.214	1332.746	60.185	-313.782	1299.848	38.953	-112.444	1283.311	40.887	-338.528	1400.844	1114.769	-244.980	1453.103	980.333	-240.224	1325.430	1149.824	-245.470	1400.259	1127.807	-184.787	1405.614	1126.378	-300.126	1451.433	39.931	-99.189	1432.144	38.544	-357.446	1341.745	485.011	-20.520	1477.969	475.525	-333.876	1381.712	538.162	-91.014	1413.595	529.729	-273.291	1386.296	453.525	-98.515	1396.948	443.617	-274.459	1317.085	168.024	-14.996	1420.903	163.110	-371.661	1329.677	219.252	-78.752	1360.621	216.283	-343.780
	205	1.70833	1361.263	701.570	-226.454	1358.972	703.979	-163.628	1363.554	699.161	-289.281	1340.163	374.283	-139.036	1341.704	377.893	-307.771	1355.474	57.402	-109.565	1336.378	59.197	-343.548	1436.586	753.292	-225.691	1433.189	756.865	-132.508	1439.984	749.719	-318.873	1298.139	816.586	-214.170	1299.451	809.429	-268.532	1338.160	378.150	-88.724	1341.608	380.772	-357.688	1337.360	375.910	-189.242	1342.947	366.100	-254.823	1345.459	59.882	-77.693	1330.414	63.086	-377.305	1351.900	65.231	-137.220	1332.732	60.214	-313.771	1299.829	38.991	-112.450	1283.304	40.911	-338.531	1400.889	1114.814	-244.921	1453.145	980.376	-240.184	1325.346	1149.910	-245.468	1400.339	1127.856	-184.717	1405.628	1126.418	-300.084	1451.431	39.961	-99.189	1432.138	38.555	-357.431	1341.690	485.029	-20.536	1478.001	475.526	-333.839	1381.659	538.219	-91.002	1413.613	529.752	-273.249	1386.262	453.578	-98.483	1396.956	443.629	-274.418	1317.050	168.038	-15.003	1420.911	163.119	-371.647	1329.661	219.296	-78.758	1360.642	216.342	-343.772
	206	1.71667	1361.274	701.587	-226.459	1358.970	703.996	-163.633	1363.578	699.178	-289.285	1340.152	374.295	-139.047	1341.701	377.901	-307.773	1355.409	57.400	-109.572	1336.363	59.189	-343.516	1436.596	753.312	-225.681	1433.179	756.885	-132.500	1440.013	749.738	-318.862	1298.145	816.605	-214.196	1299.474	809.438	-268.551	1338.143	378.162	-88.735	1341.617	380.779	-357.690	1337.424	375.946	-189.257	1342.938	366.127	-254.853	1345.390	59.882	-77.701	1330.407	63.074	-377.275	1351.849	65.255	-137.228	1332.722	60.192	-313.773	1299.816	39.019	-112.463	1283.303	40.921	-338.530	1400.942	1114.883	-244.905	1453.275	980.475	-240.157	1325.274	1149.966	-245.460	1400.375	1127.927	-184.678	1405.683	1126.488	-300.091	1451.431	39.990	-99.188	1432.137	38.565	-357.420	1341.643	485.043	-20.553	1478.025	475.530	-333.811	1381.634	538.239	-91.009	1413.628	529.783	-273.230	1386.260	453.667	-98.477	1396.959	443.646	-274.419	1316.993	168.030	-15.002	1420.920	163.126	-371.636	1329.638	219.316	-78.775	1360.661	216.402	-343.785
